<svg xmlns="http://www.w3.org/2000/svg" width="100%" height="100%" viewBox="0 0 2027.5 748.9">
        <g id="wi40xS.tif">
          <g fill="#FFFFFF">
            <path d="M1639.1,121.9c-1.3,4.1-2.4,8.3-3.9,12.3c-5.2,13.4-15.1,22.4-28,28.1c-6.7,2.9-14,4.3-21.3,4
              c-11.6-0.6-22.1-4.2-31.3-11.5c-11-8.7-17.5-20.1-19.2-33.7c-1.7-14.2,1.4-27.6,10.7-39.2c8.2-10.3,18.7-16.7,31.4-19.1
              c15.1-2.8,29,0.6,41.3,9.9c10.9,8.2,17.6,19.1,19.9,32.6c0,0.1,0.3,0.2,0.5,0.3C1639.1,111.1,1639.1,116.5,1639.1,121.9z"/>
            <path d="M1435.6,20.8c4.1,1.3,8.3,2.4,12.3,3.9c13.5,5.2,22.5,15,28.2,28c3,6.7,4.3,13.9,4,21.3c-0.5,11.6-4.2,22.1-11.6,31.3
              c-7.6,9.5-17.3,15.4-29.1,18.1c-10.8,2.4-21.3,1.7-31.5-2.5c-17.4-7.3-28-20.4-31.5-38.5c-3.3-16.9,1.3-32.3,13.2-45.1
              c8-8.6,17.7-14,29.4-15.9c0.1,0,0.2-0.3,0.3-0.5C1424.7,20.8,1430.2,20.8,1435.6,20.8z"/>
            <path d="M939.5,117.4c31.2-0.4,55.7,24.7,55.7,55.2c0,30.7-24.5,56.5-57.4,55.7c-29.4-0.7-54.5-24.5-54.2-56.2
              C883.8,142.4,908.1,116.7,939.5,117.4z"/>
            <path d="M773,269.5c-30,1.2-56.9-25-55.7-57.1c1.1-29,24.4-54.2,57-53.7c28.1,0.4,56.6,23.5,54.2,60.3
              C826.8,244.5,803.9,270.5,773,269.5z"/>
            <path d="M550.9,211c0.9-20.7,10.5-35.6,28.2-45.5c9.3-5.2,19.5-7.4,30-6.9c24.6,1.1,46.9,16.7,52.4,42.3c3,14.1-0.1,27.6-8.8,39.3
              c-8.6,11.5-20.1,18.7-34.3,21.5c-13.9,2.8-27.1,0.9-39.5-5.9c-14.6-8-24-20-27-36.7C551.3,216.3,551.2,213.5,550.9,211z"/>
            <path d="M440.3,221.2c-17.2,0.1-31.8-6.1-43.1-18.9c-7.7-8.8-12.1-19.1-12.4-31.2c-0.4-16.4,5.9-29.5,17.7-40.1
              c8-7.1,17.5-11.5,28.4-13c13.1-1.8,25.6-0.3,37.1,6c15.2,8.3,24.9,20.9,27.4,38.4c2.2,15.3-2.2,28.4-12.2,40
              c-8.9,10.3-20.2,16.1-33.6,18.1c-1.6,0.2-3.2,0.5-4.8,0.6C443.4,221.2,441.8,221.2,440.3,221.2z"/>
            <path d="M1209.3,79.5c-0.4-28.4,23-52.7,52.8-52.2c29.3,0.6,51.7,23.1,51.6,52.3c-0.1,29-22.7,52.5-53.5,52
              C1232.4,131.2,1209.1,108.7,1209.3,79.5z"/>
            <path d="M1102,172.8c-29,0.7-52.7-23.5-52.3-52.7c0.4-26.7,22.5-53.2,56.2-51.1c25.2,1.6,49.2,23.2,48.4,53.7
              C1153.6,148.9,1131.4,173.7,1102,172.8z"/>
          </g>
        </g>
        <g fill="#FFFFFF">
          <path d="M144.2,338.9c24.5,0,44.9,3.5,61.2,10.4c16.3,6.9,29,16.1,38.2,27.6c9.2,11.5,14.9,23.8,17.2,37l-76,25.2
            c-2.3-13.9-6.4-24.3-12.3-31.2c-6-6.9-14.6-10.4-25.9-10.4c-10.3,0-19,2.3-25.9,7c-6.9,4.7-12.2,12.1-15.7,22.3
            c-3.6,10.2-5.3,23.2-5.3,39c0,15.8,1.9,28.6,5.8,38.5c3.9,9.8,9.4,16.9,16.5,21.3c7.1,4.4,15.5,6.5,25.2,6.5
            c8.1,0,14.8-1.5,20.1-4.6c5.3-3.1,9.8-7.5,13.3-13.3c3.5-5.8,5.8-12.9,6.8-21.3l74.1,23.7c-2.3,14.2-8.3,26.9-18.1,38
            c-9.8,11.1-22.8,19.9-39,26.4c-16.1,6.5-35,9.7-56.6,9.7c-26.5,0-49.5-4.9-69.2-14.8c-19.7-9.8-34.8-24.2-45.5-43.1s-16-41.5-16-68
            c0-26.5,5.3-49.1,16-68s25.6-33.2,44.8-43.1C96.9,343.9,119.1,338.9,144.2,338.9z"/>
          <path d="M385.7,590.6c-16.5,0-30.9-2.8-43.3-8.5c-12.4-5.6-22.2-14.8-29.3-27.3c-7.1-12.6-10.6-29-10.6-49.4V343.8h82.3v142.3
            c0,15.5,3.1,26.3,9.2,32.4c6.1,6.1,14.8,9.2,26.1,9.2c5.8,0,11.3-1,16.5-3.1c5.2-2.1,9.7-5.3,13.6-9.7c3.9-4.4,6.9-10,9-16.9
            c2.1-6.9,3.1-15.1,3.1-24.4V343.8h82.3v242h-73.6l-2.4-45.5c-7.7,17.1-18.6,29.8-32.4,38C422.2,586.5,405.4,590.6,385.7,590.6z"/>
          <path d="M603.5,585.8v-242h72.6l3.4,52.3c6.1-18.1,15.2-32.1,27.3-42.1c12.1-10,27.5-15,46.2-15c6.1,0,11.4,0.5,15.7,1.5
            c4.4,1,7.8,2.3,10.4,3.9L771,412c-3.2-1.3-7.3-2.3-12.3-3.1c-5-0.8-11.1-1.2-18.1-1.2c-9.7,0-18.7,2.1-27.1,6.3
            c-8.4,4.2-15.1,10.4-20.1,18.6c-5,8.2-7.5,18.6-7.5,31.2v122H603.5z"/>
          <path d="M811.7,585.8v-242h72.6l3.4,52.3c6.1-18.1,15.2-32.1,27.3-42.1c12.1-10,27.5-15,46.2-15c6.1,0,11.4,0.5,15.7,1.5
            c4.4,1,7.8,2.3,10.4,3.9l-8.2,67.8c-3.2-1.3-7.3-2.3-12.3-3.1c-5-0.8-11.1-1.2-18.1-1.2c-9.7,0-18.7,2.1-27.1,6.3
            c-8.4,4.2-15.1,10.4-20.1,18.6c-5,8.2-7.5,18.6-7.5,31.2v122H811.7z"/>
          <path d="M1135,590.6c-26.8,0-49.9-5-69.5-15c-19.5-10-34.6-24.4-45.3-43.1c-10.6-18.7-16-41.3-16-67.8c0-26.5,5.3-49,16-67.8
            c10.6-18.7,25.6-33.1,44.8-43.1c19.2-10,41.2-15,66.1-15c25.5,0,47.2,4.9,65.1,14.8c17.9,9.8,31.5,23.4,40.9,40.7
            c9.4,17.3,14,37,14,59.3c0,5.8-0.2,11.6-0.5,17.4c-0.3,5.8-0.8,10.6-1.5,14.5h-191.7v-44h155.4l-39.2,15c0-19.4-3.5-34.2-10.4-44.5
            c-6.9-10.3-17.7-15.5-32.2-15.5c-10.3,0-19.1,2.4-26.4,7.3c-7.3,4.8-12.8,12.4-16.5,22.7c-3.7,10.3-5.6,23.6-5.6,39.7
            c0,15.8,2.1,28.6,6.3,38.5c4.2,9.8,10.2,16.9,17.9,21.3c7.7,4.4,17.1,6.5,28.1,6.5c12.3,0,22-2.4,29.3-7.3
            c7.3-4.8,12.7-11.6,16.2-20.3l65.8,21.8c-4.5,13.9-12.3,25.6-23.5,35.1c-11.1,9.5-24.4,16.7-39.7,21.5
            C1167.8,588.2,1151.7,590.6,1135,590.6z"/>
          <path d="M1297.1,585.8v-242h73.6l4.4,83.2l-9.2-9.2c3.2-17.4,9-31.9,17.2-43.6c8.2-11.6,18.6-20.4,31-26.4c12.4-6,26.4-9,41.9-9
            c16.8,0,31.4,3.2,43.8,9.7c12.4,6.5,22.2,16,29.3,28.6c7.1,12.6,10.6,28.4,10.6,47.4v161.2h-82.3V446.4c0-16.8-3.2-28.4-9.7-34.8
            c-6.5-6.5-14.7-9.7-24.7-9.7c-7.7,0-15,1.9-21.8,5.6c-6.8,3.7-12.1,9.6-16,17.7c-3.9,8.1-5.8,18.9-5.8,32.4v128.3H1297.1z"/>
          <path d="M1769,343.8v58.6h-196v-58.6H1769z M1696.9,266.8v232.8c0,11.6,2.8,19.9,8.5,24.9c5.6,5,13.5,7.5,23.5,7.5
            c7.7,0,14.4-0.9,20.1-2.7c5.6-1.8,10.7-4.4,15.2-8l8.7,50.8c-8.1,5.8-18.2,10.3-30.5,13.6c-12.3,3.2-24.9,4.8-37.8,4.8
            c-18.4,0-34.3-2.6-47.7-7.7c-13.4-5.2-23.7-13.4-31-24.7c-7.3-11.3-11.1-26.3-11.4-45V289.6L1696.9,266.8z"/>
          <path d="M1794.7,585.8v-50.3L1891,426l25.7-25.7l-38.2,1h-82.8v-57.6h212v50.3l-94.9,108.4l-26.6,26.6l42.6-1h83.2v57.6H1794.7z"/>
        </g>
      </svg>